<svg width="17" height="7" viewBox="0 0 17 7" fill="none" xmlns="http://www.w3.org/2000/svg">
<path d="M3.388 2.326C3.64467 2.41467 3.85467 2.56167 4.018 2.767C4.186 2.96767 4.27 3.23133 4.27 3.558C4.27 4.076 4.11833 4.447 3.815 4.671C3.51633 4.89033 3.15 5 2.716 5H0.917C0.823667 5 0.744333 4.96733 0.679 4.902C0.613667 4.83667 0.581 4.75733 0.581 4.664V0.436C0.581 0.342666 0.613667 0.263333 0.679 0.198C0.744333 0.132666 0.823667 0.0999997 0.917 0.0999997H2.716C3.14067 0.0999997 3.46267 0.205 3.682 0.415C3.906 0.625 4.018 0.928333 4.018 1.325C4.018 1.549 3.96433 1.74967 3.857 1.927C3.74967 2.09967 3.59333 2.23267 3.388 2.326ZM3.297 1.43C3.297 1.21067 3.23633 1.045 3.115 0.933C2.99833 0.816333 2.83267 0.758 2.618 0.758H1.295V2.123H2.632C2.82333 2.11833 2.982 2.05767 3.108 1.941C3.234 1.81967 3.297 1.64933 3.297 1.43ZM2.709 4.356C2.96567 4.356 3.171 4.29067 3.325 4.16C3.479 4.02467 3.556 3.824 3.556 3.558C3.556 3.04 3.262 2.781 2.674 2.781H1.295V4.356H2.709ZM8.57024 1.283C8.66824 1.283 8.74758 1.31567 8.80824 1.381C8.87358 1.44167 8.90624 1.52333 8.90624 1.626V4.664C8.90624 4.75733 8.87358 4.83667 8.80824 4.902C8.74758 4.96733 8.66824 5 8.57024 5C8.47224 5 8.39291 4.96967 8.33224 4.909C8.27158 4.84367 8.24124 4.762 8.24124 4.664V4.482C8.11991 4.64533 7.95424 4.78533 7.74424 4.902C7.53424 5.014 7.30791 5.07 7.06524 5.07C6.74791 5.07 6.45858 4.98833 6.19724 4.825C5.94058 4.66167 5.73758 4.43533 5.58824 4.146C5.44358 3.852 5.37124 3.523 5.37124 3.159C5.37124 2.795 5.44358 2.46833 5.58824 2.179C5.73758 1.885 5.94058 1.65633 6.19724 1.493C6.45391 1.32967 6.73624 1.248 7.04424 1.248C7.29158 1.248 7.52024 1.29933 7.73024 1.402C7.94491 1.50467 8.11524 1.63533 8.24124 1.794V1.626C8.24124 1.528 8.27158 1.44633 8.33224 1.381C8.39291 1.31567 8.47224 1.283 8.57024 1.283ZM7.14224 4.454C7.36158 4.454 7.55524 4.398 7.72324 4.286C7.89591 4.174 8.02891 4.02 8.12224 3.824C8.22024 3.628 8.26924 3.40633 8.26924 3.159C8.26924 2.91633 8.22024 2.697 8.12224 2.501C8.02891 2.305 7.89591 2.151 7.72324 2.039C7.55524 1.92233 7.36158 1.864 7.14224 1.864C6.92291 1.864 6.72691 1.92 6.55424 2.032C6.38624 2.144 6.25324 2.298 6.15524 2.494C6.06191 2.69 6.01524 2.91167 6.01524 3.159C6.01524 3.40633 6.06191 3.628 6.15524 3.824C6.25324 4.02 6.38624 4.174 6.55424 4.286C6.72691 4.398 6.92291 4.454 7.14224 4.454ZM13.068 1.297C13.166 1.297 13.2453 1.32967 13.306 1.395C13.3713 1.46033 13.404 1.53967 13.404 1.633V4.657C13.404 5.24033 13.243 5.67667 12.921 5.966C12.599 6.25533 12.1743 6.4 11.647 6.4C11.4743 6.4 11.304 6.38367 11.136 6.351C10.968 6.31833 10.8303 6.274 10.723 6.218C10.5503 6.13867 10.464 6.03133 10.464 5.896C10.464 5.87267 10.4687 5.84233 10.478 5.805C10.506 5.72567 10.5457 5.665 10.597 5.623C10.6483 5.581 10.7067 5.56 10.772 5.56C10.8093 5.56 10.8443 5.567 10.877 5.581C11.0217 5.64633 11.15 5.69767 11.262 5.735C11.374 5.77233 11.5047 5.791 11.654 5.791C12.3773 5.791 12.739 5.42 12.739 4.678V4.538C12.613 4.706 12.4497 4.83667 12.249 4.93C12.053 5.02333 11.8267 5.07 11.57 5.07C11.1827 5.07 10.8793 4.94633 10.66 4.699C10.4453 4.45167 10.338 4.12733 10.338 3.726V1.633C10.338 1.535 10.3683 1.45567 10.429 1.395C10.4897 1.32967 10.569 1.297 10.667 1.297C10.765 1.297 10.8443 1.32967 10.905 1.395C10.9703 1.46033 11.003 1.53967 11.003 1.633V3.551C11.003 3.859 11.0707 4.08767 11.206 4.237C11.3413 4.38167 11.5467 4.454 11.822 4.454C12.088 4.454 12.3073 4.37 12.48 4.202C12.6527 4.034 12.739 3.817 12.739 3.551V1.633C12.739 1.535 12.7693 1.45567 12.83 1.395C12.8907 1.32967 12.97 1.297 13.068 1.297ZM15.9107 1.983V4.069C15.9107 4.30233 16.0157 4.419 16.2257 4.419C16.2584 4.419 16.3027 4.412 16.3587 4.398C16.4147 4.37933 16.4591 4.37 16.4917 4.37C16.5524 4.37 16.6037 4.39567 16.6457 4.447C16.6877 4.49833 16.7087 4.56367 16.7087 4.643C16.7087 4.741 16.6527 4.825 16.5407 4.895C16.4287 4.965 16.3027 5 16.1627 5C16.0087 5 15.8664 4.98367 15.7357 4.951C15.6097 4.91833 15.4954 4.83667 15.3927 4.706C15.2947 4.57067 15.2457 4.36767 15.2457 4.097V1.983H14.8397C14.7511 1.983 14.6764 1.955 14.6157 1.899C14.5597 1.83833 14.5317 1.76367 14.5317 1.675C14.5317 1.58633 14.5597 1.514 14.6157 1.458C14.6764 1.402 14.7511 1.374 14.8397 1.374H15.2457V0.786C15.2457 0.692666 15.2761 0.613333 15.3367 0.548C15.4021 0.482666 15.4837 0.45 15.5817 0.45C15.6751 0.45 15.7521 0.482666 15.8127 0.548C15.8781 0.613333 15.9107 0.692666 15.9107 0.786V1.374H16.4917C16.5804 1.374 16.6527 1.40433 16.7087 1.465C16.7694 1.521 16.7997 1.59333 16.7997 1.682C16.7997 1.77067 16.7694 1.843 16.7087 1.899C16.6527 1.955 16.5804 1.983 16.4917 1.983H15.9107Z" fill="white"/>
</svg>
